<?xml version="1.0" encoding="UTF-8"?>
<svg id="Ebene_1" data-name="Ebene 1" xmlns="http://www.w3.org/2000/svg" viewBox="0 0 1337.36 403.48">
  <g id="Technologies">
    <path d="M814.28,326.96v-35.58h7.73v49.5c-3.5-.04-7.01.81-10.16-1.44-6.65-4.74-13.28-27.6-22.32-32.59v34.03h-9.28v-47.18c2.09-3.03,7.89-3.3,10.82-1.53,6.35,3.82,14.47,30.17,23.21,34.79Z"/>
    <path d="M1137.57,340.88c-5.52.9-6.01-.34-8.5-4.62-25.86,20.44-51.41-16.54-30.97-38.72,11.23-12.19,35.64-10.56,37.91,7.75-8.45,2.72-8.69-5.31-13.81-7.05-26.31-8.93-27.7,32.65-12.88,36.02,9.61,2.19,20.59-.23,19.84-12l-13.26-1.5v-6.18h21.66v26.3Z"/>
    <path d="M1027.31,290.19c40.05-8.26,39.44,57.85,1.59,51.88-26.18-4.13-26.56-46.72-1.59-51.88ZM1027.29,297.89c-14.62,4.32-14.02,41.92,10.18,36.48,18.98-4.27,14.86-43.87-10.18-36.48Z"/>
    <path d="M878.87,290.24c39.15-5.62,38.67,55.81,1.58,51.82-28.15-3.03-29.3-47.84-1.58-51.82ZM872,331.12c3.08,3.4,8.35,3.88,12.7,3.67,21.7-1.02,18.71-40.35-2.58-37.96-16.29,1.83-19.71,23.68-10.12,34.29Z"/>
    <path d="M733.84,311.49v-20.12s9.28,2.33,9.28,2.33v47.18h-9.28v-23.2h-22.43c-4.98,2.83-.81,21.74-2.31,23.21h-7.74v-49.51l8.6,1.45c3.47,4.96-3.04,14.9,1.45,18.66h22.43Z"/>
    <path d="M1329.38,303.75c-7.62,2.36-7.82-3.17-10.34-4.72-4.56-2.8-16.93-2.99-17.56,4.03-.95,10.51,23.82,6.38,28.64,17.74,9.79,23.07-36.71,30.76-39.4,6.17l8.33-.11c1.33,11.14,23.01,10.82,23.92.61.92-10.46-30.48-5.56-30.48-22.93,0-18.7,36.28-20.03,36.89-.78Z"/>
    <polygon points="1259.78 291.38 1259.78 297.57 1233.48 297.57 1233.48 311.49 1258.23 311.49 1255.91 319.22 1233.48 319.22 1233.48 334.69 1259.78 334.69 1259.78 340.88 1224.2 340.88 1224.2 291.38 1259.78 291.38"/>
    <polygon points="588.43 291.38 588.43 297.57 562.14 297.57 562.14 311.49 586.89 311.49 585.41 318.46 563.64 318.35 562.14 334.69 588.43 334.69 588.43 340.88 552.85 340.88 552.85 291.38 588.43 291.38"/>
    <path d="M665.78,306.84c-9.19,3.34-8.92-7.13-15.01-8.95-27.31-8.12-29.66,42.26-1.27,36.77,7.68-1.49,9.21-16.73,17.79-8.49-14.43,29.93-51.42,15.76-46.26-16.91,3.58-22.69,42.93-28.4,44.76-2.42Z"/>
    <path d="M518.05,289.83l2.33,7.73c-1.15,1.21-14.79-2.29-17.02,2.33v40.99h-7.73v-40.99c-3.67-5-12.85-.38-17.08-3.04-2.25-.9-.29-7.02.06-7.02h39.45Z"/>
    <polygon points="953.49 291.38 953.49 333.15 975.92 333.15 978.24 340.88 944.21 340.88 944.21 291.38 953.49 291.38"/>
    <path d="M1176.24,340.88v-49.5c3.01.05,7.89-1.04,9.07,2.54-.81,13.03,1.83,28.99.29,41.62-.8,6.59-3.29,5.45-9.36,5.34Z"/>
  </g>
  <g id="OpenHD">
    <path d="M546.33,67.52c109.33-13.13,128.3,146.87,27.25,163.37-112.17,18.32-127.94-151.28-27.25-163.37ZM547.84,90.69c-25.22,3.65-42.8,34.77-42.52,58.72.43,36.45,30.95,68.89,68.88,57.36,61.33-18.66,47.08-126.71-26.36-116.08Z"/>
    <path d="M1197.9,229.5V70.18h73.48c3.47,0,17.66,5.83,21.68,7.71,75.18,35.31,48.94,151.61-35.6,151.61h-59.55ZM1222.65,206.3c40.54,6.28,82.22-3.2,86.43-50.46,2.4-26.9-16.84-64.01-46.99-64.01h-37.12l-2.32,2.32v112.15Z"/>
    <path d="M1058.68,70.18v66.52h81.98v-66.52h26.3v157.01l-2.56,2.08c-7.4-.42-17.85,2.57-23.73-2.08v-67.29h-81.98v67.29l-2.56,2.08c-7.4-.42-17.85,2.57-23.73-2.08V70.18h26.3Z"/>
    <path d="M682.79,217.13v55.69h-24.75V116.58h24.75v9.27c5.94-1.85,9.93-7.22,15.93-9.58,52.01-20.46,87.71,45.63,61.71,89.55-12.27,20.73-40.94,30.95-63.22,20.85-5.52-2.5-8.81-8.02-14.43-9.55ZM689.52,199.58c6.78,7.72,17.93,10.77,28.08,9.82,40.21-3.75,35.78-86.5-13.26-75.13-5.76,1.33-13.39,7.86-16.65,12.74-7.71,11.55-7.63,41.8,1.83,52.57Z"/>
    <path d="M886.98,197.02c-20.58,54.54-104.17,40.47-108.34-19.28-5.68-81.48,102.05-82.9,109.72-18.45.69,5.78,1.5,16.37-2.15,20.72h-81.21c-3.51,26.54,33.33,39.42,51.12,24.05,1.56-1.35,4.63-7.04,5.34-7.04h25.52ZM862.23,161.44c-.22-38.17-57.49-38.09-57.23,0h57.23Z"/>
    <path d="M928.74,229.5h-23.2v-112.92h23.2v12.36c.85.86,16.89-11.65,20.29-12.96,27.84-10.75,55.79,3.4,58.58,33.88,2.25,24.66-1.07,53.29-.65,78.19-1.55,2.22-22.52,3-23.86-1.09-2.22-23.19,2.23-49.72-.21-72.49-2.78-26-34.18-26.6-47.95-7.72-1.39,1.91-6.2,10.88-6.2,12.37v70.38Z"/>
  </g>
  <path id="Logo" d="M403.48,201.74c0,111.42-90.32,201.74-201.74,201.74S0,313.16,0,201.74,90.32,0,201.74,0s201.74,90.32,201.74,201.74ZM105.16,120.58c26.26-28.27,59.69-41.43,98.07-45.01,13.25-16.11-2.65-17.2-16.19-16.19-58.3,4.33-112.68,52.21-129.59,107.08-2.92,9.49-14.13,46.31,0,48.89,13.74,2.51,11.33-19.83,13.49-29.2,5.72-24.81,16.96-46.99,34.21-65.56ZM89.19,213.62c3.65,3.48,12.32,1.59,14.31-2.67,1.61-3.45,2.14-15.56,3.63-21.12,8.39-31.36,30.15-58.96,61.04-70.45,8.89-3.31,30.48-5.3,35.92-8.94,8.41-5.62,3.16-17.06-7.61-16.92-15.88.2-49.84,15.68-63.33,24.87-19.06,12.99-34.29,37.44-41.32,59.23-2.58,8-8.97,29.97-2.65,35.99ZM190.54,130.94c-24.87,2.66-46.4,21.27-58.14,42.4-5.02,9.03-20.13,45.14.38,42.28,8.61-1.2,8.88-20.99,11.9-28.45,6.11-15.11,20.11-28.5,35.39-34.22,9.37-3.5,28.53-2.06,27.8-13.83-.59-9.38-10.39-8.93-17.33-8.18ZM263.98,198.98c-3.38,3.17-4.55,19.73-6.93,26.31-7.8,21.51-28.57,36.35-50.32,40.95-6.56,1.39-17.01-1.47-18.7,9.24-2.57,16.3,29.19,7.83,37.28,4.7,26.49-10.24,51.84-39.37,53.72-68.49.65-10.13-6.18-21.02-15.05-12.71ZM314.24,198.98c-1.65-1.56-5.78-2.3-8.03-1.99-9.2,1.26-7.87,16.51-9.6,23-12.65,47.42-37.9,70.64-85.53,81.53-11.13,2.55-27.43-1.45-20.23,16.97,6.42,6.53,34.12-1.03,42.6-3.88,41-13.8,70.03-44.41,80.43-86.64,1.7-6.91,5.85-23.81.36-29ZM312.46,306.26c17.87-19.28,32.66-46.19,38.85-71.79,2.92-12.09,10.51-45.68-11.9-35.1-4.47,12.07-4.48,25.28-8.2,38.2-13.8,47.91-54.63,86.17-102.87,98.23-11.15,2.79-25.62,2.62-34.83,5.39-7.7,2.32-8.17,15.52,4.24,16.79,38.92,3.98,88.96-23.96,114.7-51.73Z"/>
</svg>